<svg width="58" height="61" viewBox="0 0 58 61" fill="none" xmlns="http://www.w3.org/2000/svg">
<path fill-rule="evenodd" clip-rule="evenodd" d="M28.8352 60.5947C28.8011 60.5947 28.767 60.5947 28.7329 60.5947C12.8749 60.5947 0 47.1523 0 30.5944C0 14.0372 12.8749 0.594727 28.7329 0.594727C44.591 0.594727 57.4665 14.0372 57.4665 30.5944V55.9704C57.4665 58.5228 55.4815 60.5947 53.0368 60.5947C50.8551 60.5947 49.0841 58.7456 49.0841 56.4671V30.5938C49.0841 18.88 39.9701 9.36978 28.7443 9.36978C17.5185 9.36978 8.40453 18.8806 8.40453 30.5944C8.40453 42.3088 17.5185 51.8197 28.7443 51.8197C28.7748 51.8197 28.8435 51.8197 28.8531 51.8197C30.7885 51.8297 32.3563 53.4735 32.3563 55.4961V56.9183C32.3563 58.9472 30.7789 60.5947 28.8352 60.5947ZM44.918 30.5944V55.9498C44.918 58.5135 42.9246 60.5947 40.4698 60.5947C38.2779 60.5947 36.4991 58.7369 36.4991 56.449V30.5944C36.4991 26.1298 33.1118 22.504 28.8352 22.504C24.5591 22.504 21.0869 26.1292 21.0869 30.5938C21.0869 35.059 24.5591 38.6842 28.8352 38.6842C28.8465 38.6842 28.8567 38.6842 28.868 38.6842C30.7963 38.7023 32.3563 40.3443 32.3563 42.3619V43.7935C32.3563 45.823 30.7789 47.4699 28.8352 47.4699C28.8352 47.4699 28.7748 47.4699 28.7443 47.4699C19.8174 47.4699 12.57 39.9149 12.57 30.6088C12.57 21.3026 19.8174 13.747 28.7443 13.747C37.6665 13.747 44.9108 21.2951 44.918 30.5944Z" fill="white"/>
</svg>
