<svg width="28" height="28" viewBox="0 0 28 28" fill="none" xmlns="http://www.w3.org/2000/svg">
<path d="M14 0.666656C11.3629 0.666656 8.78505 1.44864 6.5924 2.91373C4.39974 4.37881 2.69077 6.4612 1.68161 8.89754C0.672437 11.3339 0.408393 14.0148 0.922863 16.6012C1.43733 19.1876 2.70721 21.5634 4.57191 23.4281C6.43661 25.2928 8.81238 26.5627 11.3988 27.0771C13.9852 27.5916 16.6661 27.3276 19.1024 26.3184C21.5388 25.3092 23.6212 23.6002 25.0863 21.4076C26.5513 19.2149 27.3333 16.6371 27.3333 14C27.3333 12.249 26.9885 10.5152 26.3184 8.89754C25.6483 7.27987 24.6662 5.81001 23.4281 4.5719C22.19 3.33379 20.7201 2.35166 19.1024 1.6816C17.4848 1.01153 15.751 0.666656 14 0.666656ZM14 24.6667C11.8903 24.6667 9.82804 24.0411 8.07392 22.869C6.31979 21.6969 4.95262 20.031 4.14529 18.0819C3.33795 16.1329 3.12671 13.9882 3.53829 11.919C3.94987 9.8499 4.96577 7.94928 6.45753 6.45752C7.94929 4.96576 9.84991 3.94986 11.919 3.53828C13.9882 3.1267 16.1329 3.33794 18.082 4.14528C20.031 4.95261 21.6969 6.31978 22.869 8.07391C24.0411 9.82803 24.6667 11.8903 24.6667 14C24.6667 16.829 23.5429 19.5421 21.5425 21.5425C19.5421 23.5429 16.829 24.6667 14 24.6667ZM19.3333 12.6667H8.66667C8.31304 12.6667 7.97391 12.8071 7.72386 13.0572C7.47381 13.3072 7.33333 13.6464 7.33333 14C7.33333 14.3536 7.47381 14.6928 7.72386 14.9428C7.97391 15.1928 8.31304 15.3333 8.66667 15.3333H19.3333C19.687 15.3333 20.0261 15.1928 20.2761 14.9428C20.5262 14.6928 20.6667 14.3536 20.6667 14C20.6667 13.6464 20.5262 13.3072 20.2761 13.0572C20.0261 12.8071 19.687 12.6667 19.3333 12.6667Z" fill="white"/>
</svg>
